<svg width="23" height="26" viewBox="0 0 23 26" fill="none" xmlns="http://www.w3.org/2000/svg">
<path d="M6.5 0C2.78571 0 0 1.57857 0 3.71428C0 5.85 2.78571 7.42857 6.5 7.42857C10.2143 7.42857 13 5.85 13 3.71428C13 1.57857 10.2143 0 6.5 0Z" fill="black"/>
<path d="M6.5 9.28545C3.80714 9.28545 1.48571 8.54259 0 7.33545V8.35688C0 10.4926 2.78571 12.0712 6.5 12.0712C10.2143 12.0712 13 10.4926 13 8.35688V7.33545C11.5143 8.54259 9.19285 9.28545 6.5 9.28545Z" fill="black"/>
<path d="M6.5 13.9285C3.80714 13.9285 1.48571 13.1857 0 11.9785V12.9999C0 15.1357 2.78571 16.7142 6.5 16.7142C10.2143 16.7142 13 15.1357 13 12.9999V11.9785C11.5143 13.1857 9.19285 13.9285 6.5 13.9285Z" fill="black"/>
<path d="M6.5 18.5711C3.80714 18.5711 1.48571 17.8282 0 16.6211V17.6425C0 19.7782 2.78571 21.3568 6.5 21.3568C10.2143 21.3568 13 19.7782 13 17.6425V16.6211C11.5143 17.8282 9.19285 18.5711 6.5 18.5711Z" fill="black"/>
<path d="M6.5 23.2142C3.80714 23.2142 1.48571 22.4713 0 21.2642V22.2856C0 24.4213 2.78571 25.9999 6.5 25.9999C10.2143 25.9999 13 24.4213 13 22.2856V21.2642C11.5143 22.4713 9.19285 23.2142 6.5 23.2142Z" fill="black"/>
<path d="M15.785 20.4285C15.5064 20.4285 15.135 20.4285 14.8564 20.4285V23.2142C15.135 23.2142 15.5064 23.2142 15.785 23.2142C19.4993 23.2142 22.285 21.6357 22.285 19.4999V18.4785C20.7993 19.6857 18.4779 20.4285 15.785 20.4285Z" fill="black"/>
<path d="M15.785 15.7859C15.5064 15.7859 15.135 15.7859 14.8564 15.7859V18.5717C15.135 18.5717 15.5064 18.5717 15.785 18.5717C19.4993 18.5717 22.285 16.9931 22.285 14.8574V13.8359C20.7993 15.0431 18.4779 15.7859 15.785 15.7859Z" fill="black"/>
<path d="M15.785 6.5C15.5064 6.5 15.135 6.5 14.8564 6.5V13.9286C15.135 13.9286 15.5064 13.9286 15.785 13.9286C19.4993 13.9286 22.285 12.35 22.285 10.2143C22.285 8.07857 19.4993 6.5 15.785 6.5Z" fill="black"/>
</svg>
