<svg width="64" height="80" viewBox="0 0 64 80" fill="none" xmlns="http://www.w3.org/2000/svg">
<path d="M46.8845 43.8272C46.8845 43.0163 46.5624 42.2385 45.989 41.6651C45.4155 41.0917 44.6378 40.7695 43.8268 40.7695H19.3653C18.5544 40.7695 17.7766 41.0917 17.2032 41.6651C16.6298 42.2385 16.3076 43.0163 16.3076 43.8272C16.3076 44.6382 16.6298 45.4159 17.2032 45.9893C17.7766 46.5628 18.5544 46.8849 19.3653 46.8849H43.8268C44.6378 46.8849 45.4155 46.5628 45.989 45.9893C46.5624 45.4159 46.8845 44.6382 46.8845 43.8272ZM46.8845 60.1349C46.8845 59.324 46.5624 58.5462 45.989 57.9728C45.4155 57.3994 44.6378 57.0772 43.8268 57.0772H19.3653C18.5544 57.0772 17.7766 57.3994 17.2032 57.9728C16.6298 58.5462 16.3076 59.324 16.3076 60.1349C16.3076 60.9459 16.6298 61.7236 17.2032 62.297C17.7766 62.8705 18.5544 63.1926 19.3653 63.1926H43.8268C44.6378 63.1926 45.4155 62.8705 45.989 62.297C46.5624 61.7236 46.8845 60.9459 46.8845 60.1349Z" fill="black"/>
<path fill-rule="evenodd" clip-rule="evenodd" d="M11.2115 0C8.23805 0 5.38635 1.18121 3.28378 3.28378C1.18121 5.38635 0 8.23805 0 11.2115V68.2885C0 71.2619 1.18121 74.1136 3.28378 76.2162C5.38635 78.3188 8.23805 79.5 11.2115 79.5H51.9808C54.9543 79.5 57.806 78.3188 59.9085 76.2162C62.0111 74.1136 63.1923 71.2619 63.1923 68.2885V23.3118C63.1923 21.7585 62.6868 20.2501 61.7491 19.0107L49.5265 2.83346C48.8614 1.95332 48.0014 1.23938 47.0138 0.74774C46.0263 0.256099 44.9382 0.000148781 43.8351 0H11.2115ZM6.11538 11.2115C6.11538 8.39846 8.39846 6.11538 11.2115 6.11538H40.7692V24.0416C40.7692 25.7295 42.1391 27.0993 43.8269 27.0993H57.0769V68.2885C57.0769 71.1015 54.7938 73.3846 51.9808 73.3846H11.2115C8.39846 73.3846 6.11538 71.1015 6.11538 68.2885V11.2115Z" fill="black"/>
</svg>
