<svg width="29" height="29" viewBox="0 0 29 29" fill="none" xmlns="http://www.w3.org/2000/svg">
<path d="M4.24846 24.7519C2.86356 23.4144 1.75892 21.8144 0.998986 20.0453C0.239055 18.2763 -0.160945 16.3736 -0.177675 14.4483C-0.194406 12.523 0.172469 10.6136 0.901542 8.83161C1.63061 7.04961 2.70728 5.43066 4.06873 4.06922C5.43017 2.70777 7.04913 1.6311 8.83112 0.90203C10.6131 0.172957 12.5225 -0.193917 14.4478 -0.177187C16.3731 -0.160457 18.2758 0.239544 20.0448 0.999474C21.8139 1.7594 23.4139 2.86405 24.7515 4.24894C27.3927 6.98368 28.8543 10.6464 28.8212 14.4483C28.7882 18.2501 27.2632 21.8869 24.5748 24.5753C21.8864 27.2637 18.2496 28.7887 14.4478 28.8217C10.6459 28.8548 6.98319 27.3932 4.24846 24.7519ZM13.05 15.9504V21.7504H15.95V13.0504H13.05V15.9504ZM13.05 7.25044V10.1504H15.95V7.25044H13.05Z" fill="#8E1127"/>
</svg>
