<svg width="19" height="19" viewBox="0 0 19 19" fill="none" xmlns="http://www.w3.org/2000/svg">
<path d="M6.7955 3.23797C7.9988 1.07933 8.60044 0 9.49999 0C10.3995 0 11.0012 1.07932 12.2044 3.23796L12.5158 3.79642C12.8578 4.40984 13.0287 4.71656 13.2953 4.91893C13.5619 5.1213 13.8938 5.19641 14.5579 5.34665L15.1625 5.48344C17.4991 6.01214 18.6675 6.27649 18.9454 7.17035C19.2234 8.06418 18.4269 8.99566 16.8339 10.8584L16.4218 11.3404C15.9691 11.8697 15.7427 12.1344 15.6409 12.4618C15.5391 12.7893 15.5733 13.1424 15.6417 13.8487L15.7041 14.4917C15.9449 16.9771 16.0653 18.2198 15.3376 18.7722C14.6098 19.3246 13.5159 18.821 11.3281 17.8137L10.7621 17.553C10.1404 17.2668 9.82954 17.1236 9.49999 17.1236C9.17043 17.1236 8.8596 17.2668 8.23792 17.553L7.67191 17.8137C5.48404 18.821 4.39012 19.3246 3.66239 18.7722C2.93466 18.2198 3.05508 16.9771 3.29593 14.4917L3.35823 13.8487C3.42668 13.1424 3.4609 12.7893 3.35906 12.4618C3.25724 12.1344 3.03091 11.8697 2.57822 11.3404L2.16609 10.8584C0.573089 8.99566 -0.223419 8.06418 0.0545508 7.17035C0.33252 6.27649 1.50087 6.01214 3.83756 5.48344L4.44209 5.34665C5.1061 5.19641 5.43811 5.1213 5.70469 4.91893C5.97127 4.71656 6.14225 4.40985 6.48419 3.79642L6.7955 3.23797Z" fill="black"/>
</svg>
