<?xml version="1.0" standalone="no"?>
<!DOCTYPE svg PUBLIC "-//W3C//DTD SVG 20010904//EN"
 "http://www.w3.org/TR/2001/REC-SVG-20010904/DTD/svg10.dtd">
<svg version="1.0" xmlns="http://www.w3.org/2000/svg"
 width="32.000000pt" height="32.000000pt" viewBox="0 0 32.000000 32.000000"
 preserveAspectRatio="xMidYMid meet">

<g transform="translate(0.000000,32.000000) scale(0.100000,-0.100000)"
fill="#000000" stroke="none">
<path d="M103 276 c-88 -40 -95 -175 -11 -226 71 -43 160 -11 188 68 28 80
-22 158 -106 168 -22 2 -53 -2 -71 -10z m107 -21 c51 -26 72 -87 48 -139 -10
-24 -12 -24 -24 -8 -18 24 -130 24 -148 0 -12 -16 -14 -16 -24 8 -16 34 -15
59 3 94 28 54 90 73 145 45z m-6 -151 c46 -18 -12 -60 -66 -48 -33 7 -48 32
-27 45 16 10 70 12 93 3z"/>
<path d="M125 230 c-40 -45 20 -105 65 -65 24 22 26 48 4 69 -21 22 -47 20
-69 -4z m60 -30 c0 -18 -6 -26 -23 -28 -24 -4 -38 18 -28 44 3 9 15 14 28 12
17 -2 23 -10 23 -28z"/>
</g>
</svg>
