<?xml version="1.0" standalone="no"?>
<!DOCTYPE svg PUBLIC "-//W3C//DTD SVG 20010904//EN"
 "http://www.w3.org/TR/2001/REC-SVG-20010904/DTD/svg10.dtd">
<svg version="1.0" xmlns="http://www.w3.org/2000/svg"
 width="500.000000pt" height="500.000000pt" viewBox="0 0 500.000000 500.000000"
 preserveAspectRatio="xMidYMid meet">

<g transform="translate(0.000000,500.000000) scale(0.100000,-0.100000)"
fill="#000000" stroke="none">
<path d="M2408 3820 c-124 -22 -227 -78 -313 -171 -106 -113 -150 -227 -148
-384 1 -156 42 -259 149 -375 95 -102 218 -162 359 -175 194 -18 430 93 451
213 3 15 9 31 15 37 5 5 9 23 9 40 0 34 40 82 58 71 18 -11 52 50 63 111 21
114 -13 276 -80 381 -69 107 -183 196 -300 233 -75 23 -193 32 -263 19z m10
-142 c-3 -7 -13 -15 -24 -17 -16 -3 -17 -1 -5 13 16 19 34 21 29 4z"/>
<path d="M1854 2440 c-72 -36 -177 -117 -169 -130 4 -6 -1 -7 -11 -3 -13 5
-16 2 -12 -9 4 -10 1 -15 -10 -14 -9 0 -16 -5 -14 -12 1 -8 -2 -11 -7 -8 -13
9 -122 -138 -174 -234 -57 -105 -115 -251 -157 -394 -26 -88 -32 -120 -28
-170 10 -114 81 -214 188 -265 l55 -26 985 0 985 0 55 26 c108 50 178 150 188
265 4 50 -2 83 -27 170 -134 456 -287 683 -542 804 -35 16 -78 30 -94 30 -30
0 -45 -9 -136 -79 -64 -49 -171 -97 -269 -122 -145 -36 -307 -19 -463 49 -42
19 -93 52 -199 130 -41 29 -73 28 -144 -8z"/>
</g>
</svg>
